/* XPM */
static char *result[] = {
/* columns rows colors chars-per-pixel */
"64 64 81 1 ",
"  c #3C1E0F",
". c #3D1D10",
"X c #3E2011",
"o c #401F11",
"O c #432313",
"+ c #452816",
"@ c #482817",
"# c #452718",
"$ c #472A19",
"% c #4A2D1A",
"& c #4E321D",
"* c #51341F",
"= c #4D3423",
"- c #523521",
"; c #543A22",
": c #5A3D26",
"> c #523D2C",
", c #5A3D29",
"< c #5A4227",
"1 c #54412F",
"2 c #5D442A",
"3 c #5F492C",
"4 c #564333",
"5 c #584634",
"6 c #5A4935",
"7 c #5D4D3B",
"8 c #5E503E",
"9 c #61462C",
"0 c #61492D",
"q c #654E31",
"w c #684F34",
"e c #614F3C",
"r c #675032",
"t c #6B5235",
"y c #62513E",
"u c #6F5739",
"i c #71593B",
"p c #356A42",
"a c #3A7648",
"s c #3C7C4C",
"d c #377C50",
"f c #3A7F50",
"g c #645442",
"h c #685746",
"j c #665846",
"k c #6A5A46",
"l c #675A49",
"z c #6B5C4B",
"x c #765F41",
"c c #6E614F",
"v c #7A6445",
"b c #71624F",
"n c #7C6749",
"m c #6F6251",
"M c #726553",
"N c #756857",
"B c #786957",
"V c #776B5A",
"C c #7B6D5B",
"Z c #7D705E",
"A c #7F7261",
"S c #806C4E",
"D c #827563",
"F c #877B6A",
"G c #897D6D",
"H c #8A7F71",
"J c #3F824F",
"K c #3E8250",
"L c #43854E",
"P c #47884D",
"I c #498A4D",
"U c #518F4B",
"Y c #5F9B47",
"T c #52904B",
"R c #5D9A48",
"E c #408550",
"W c #619D47",
"Q c #66A145",
"! c #8B816F",
"~ c #8D8272",
"^ c #948877",
/* pixels */
"JJJJJJJJJJJJJJJJffIIfffUffUffffEKEJJJJJJPfffPEEfEffPfPfffPIfIfIf",
"JJJJJJJJJJJJJJJJfIffIffffffffUVEEKJJJJJJffPfsssPfPfffPfPffsfffIf",
"JJJJJJJJJJJJJJJJfffIfUfIUffUffffKEKJJJJJfPfsppsfPfPfffPfPPffffff",
"JJJJJJJJJJJJJJKLIffffsffffffffUfEKLKJJJJPfssppssffPfPffPfffIIfIf",
"JJKJJJJJJJJJJJJJIffffIIsffUfffUfJJJJJJJJPsppssppsPPffPfsfUffffff",
"JJJJJJJJJJJJJJJJfffIfsssffffUfffJJJJJJJJfsppssppffffffPffffUfIfI",
"JJJJJJJJJJJJJJJJIfffIfsUUfffffffJJJJJJJJsIsappssffPPPPfffffffIfI",
"LJJJJJJJJJJJJJJJffIfIfssffUfffUfJJJJJJJJsIssppssPffffffPfUfIffff",
"JJJJJJJJJJJJJJJJs:---sasEsssEsEsJsKEsssssss----sJJLJJJJJffUfffUf",
"JJJJJJJJJJJJJJJJ9HDD-:**-**&*****-*&%*:-:*--DDH,JJKJJJJJffffffff",
"JJJJJJJJJJJJJJJJ,HDD-wuiSxxSnnvvnxxxuiiuuuu-GDH,JJJJJJJJUfffUffU",
"JJJJJJJJJJJJLJJJ,^^H-tiSSSSSS@&%&%@nSSSSiit-H^H,JJJJJJJJffUfffff",
"JJJJJJJJJJEKKKLKoxhgo:::-9990oSeBBo999999::*tgxoJJJJJJJJJJJJfUff",
"JJJJJJJJJJJKsKJJokggoo@OooooooDF,Dooooooooo@gwhoJJJJJJJJJJJKffff",
"JJJJLKJJJJJsffJJohwwo*@@%*%%%oGGGFo&&%%%@@%oeehoJJJJJJJJJJKLKEVE",
"JJJJJJJJJJKLIIEsohewo@*%%%%%&oyyggo@%%%@@@%oeegoJJJJJJJJJJEKEKEK",
"JJJJJJJJJsKIRRPf.g6eo&&*****&*ooO.&&&*=%&%%o76goJJJJJJJJJJJJJJJJ",
"JJJKJJJJJJdIQQIf.g66o%%&&*&**&*&&&&&&&%%%%%.66g.JJJJJJJJJJJJJJJJ",
"JJJLJJJJJJfIQQIf.e55o%&*&*&&&&&&&%&&%&&%%%@o65e.JJJJJJJJJJJJJJJJ",
"JJJJJJJJJJfIQQIK.755.%****;;**;*;*-;-;--*&&.55e.JJJJJJJJJJJJJJJJ",
"JJJJJJJJJJfIQQIL e44.&*-;*;;;;;;;;;;;;;-*&& 44e JJJJJJJJJJJJJJJJ",
"JJJJJJJJJJfIWQLL 714.&*-;;;*;;;*;;-;;;;;;&&.147 JJJJJJJJJJJJJJJJ",
"JJJJJJJJJJKIQQLI.611.&;;;;;;;;;:;;;;;;;;;&&.446.JJJJJJJKJJJJJJJJ",
"JJJJJJJJJJfIYRLIo64>.;22229230299233223<<<;.>46.JJJJJJJLJJJKLJJJ",
"JJJJJJJJJJsEIPKI.5>>.;3333990090993039922::.>>4.JJJJJJJJJJJJJJJJ",
"JJJJJJJJJJLKfffP.4>>.;9399090000990903092:< >>4.JJJJJJJJJJJJJJJJ",
"JJJJJJJJJJJJsKsL.>==.;2333090000q00900909<,.==1.LKJJJJJJJJJJJJJJ",
"sJJJJJJJJJJJJEKJ%=%%O,3q03rrr0rqq0rrqqqqq99.o...JJJJJJJJJJJJJJJJ",
"KfJJJJJJJJJJJJEJ$ZZBo%$%&&&&***********&*%%oAZCoJJJJJJJJJJJJJKLJ",
"IPEKJJJJJJJJJJKKO554....  .....oooooooooo.oo455%JJJJJJJJJJJJJJsJ",
"QRLdsJJJJJJJJJJs#$$@#<2399q9qqqrrttqqr00922.%&%%JJJJJJJJJJJJJJKd",
"QWTPEKLKJJJJJKJLoMggo---;*-;;*;***;;****;;-oggcOJJJJJJJJJJJJJEII",
"PIWWIfEsEEEssEEE+MujX=&;;&;=&;&<*;*;*;*;*;*OjjM+JJJJJJJJJJJJsPRQ",
"EUWWIffLssEEEEss+VccX&;*;&&&&&&***;***;&*=*OkcB+JJJJJJJJJJJJKPRQ",
"WWUPEsEfEEEfEsEE$Zbb+&%%X&&&&X%%&%%%%%%%%%%ObbZ+JJJJJJJJJJJJJJPI",
"WWEfsEEsEsEsEEsE&ZNNX&&%&&=X&&%%%%%%%%%%&%%#MMD&JJJJJJJJJJJJJJKK",
"UILsEEfLEEsEEsEE*DCV%&&%X&X&%$$%%&%%X%%%%%%@BBD=JJJJJJJJJJJJJJJJ",
"ffsEsELfsEsEEsEs=DCZX&&%=&X&$%%$%X%%&%&X@%%@CCD=JJJLJJJJJJJJJJJJ",
"EfEEsEEEEsEEEEsE*FZZX&&X&XX&$+++XX++%XXX#O#$CCF-JJJJJJJJJJJJJJJJ",
"sEsEEEssEEEssEEE-FZZ&&X&XX&XX+++X%X%X%X%Oo#%CZF-JJJJJJJJJJJJJJJJ",
"EEsEEEsEEsEEEsEs-GDA%@@++++O+O+O%XX%OOOOOOO&AAF-JJJJJJJJJJJJJJJJ",
"EsEEsEsEEsEsEEEs-!DD%@++++O+++O+X%%XO++OO+O&AAG-JJJJJJJJJJJJJJJJ",
"EEssLfEEEEsEssEE;~DD&oooo  $....  X +  oo  &DD~-JJJJJJJJJJJJJJJJ",
"sEEEfLEssEEEEEEf-~HH&9iiiiiOuuuuiiiioiiiiii%G~~*JJJJJJJJJJJJJJJJ",
"KsLKLfLfEEsssEEEoVclo,q000t t33333qtOr0033rOxcV&JJJJJJJJJJJJJJJJ",
"KLfEfLfLsEEEEEssoVllO;q000rOr093333rOt03000OycN%JJJJJJJJJJJJJJJJ",
"EJsKfLLssEEEEsEEomjgO-0000rXr333333rXr3300qOyjM$JKsKJJJJJJJJJJJJ",
"LJLfLKEKEEssEEsEol7gO*29<20O0<<<<<<rOr<<<<<O88cXJLPLLJJJJJJJJJJJ",
"fLsKJJJJJLJJJLsKoj77X=2<<<0O3<<<<<<qX0<<2<<O88jOdPYYPJJJJJJJJJJJ",
"LfEKEKJJLfJJLfEK.g77X&<<<<0X2<<<<<<qOq<<<2< 558OJPQQIdJJJJJJJJJJ",
"JJJJsKfLfKKJJJJJ.g66X&;;<;3X<;;;<*;<X3<;:<>X558.LPQQIJJJJJJJJJJJ",
"JJJJLfLJLsEJJJJJ.866X&<;*;3O<<;;*<<< 3<;<*<.558.PLQQIdJJJJJJJJJJ",
"LfJJLfJJEKLfJfLf.$$#O&&&**3X;*-;**<<X<=&&**+X##.PPQQIJJJJJJJJJJJ",
"fLJJsLJJJKsLJLsL.mmmMX .XXXXXO.OXX  XXXO  XmmmM.PLRRPdJJJJJJJJJJ",
"LKEJKJJJJJLfJJKK 877g.jlcccmVVVVVNMNVMmzzl g687.IKLPLJJJJJJJJJJJ",
"sKJJKEJJJJJJJJJE >>>8.4>111444445554444444X8>>> IKKfJJJJJJJJJJJJ",
"sLfLEKLfJJJJJLfL..... ......  ..  .......   ....LJJJJJJJJJJJJJJJ",
"KfLJJKsLfLJJJJKsJJJJJJJJJKIIKJJJKKJJJJJJJJJJJJffJJJJJJJJJJJJJJJJ",
"KEJJJJJJLsKJJJKEJJJJJJJKdLWWLdJJKJJJJJJJJJJJJJJJJJJJJJJJJJJJJJJJ",
"JJJJJJJJfLKEJJJJJJJJJJsELTWWTLJJKKJJJJJJJJJJJJJJJJJJJJJJJJJJJJJJ",
"JJJLKKEJKsLfJJLfJJJJJJfIWWIIYYIKJJJJJJJJJJJJJJJJJJJJJJJJJJJJJJJJ",
"JJLfsLJJKLfLJJfLJJJJJKfPWWUIQYIKJJJJJJJJJJJJJJJJJJJJJJJJJJJJJJJJ",
"JEfLLfJJEJJJJJLsJJJJJJJLLUWYTLJJJJJJJJJJJJJJJJJJJJJJJJJJJJJJJJJJ",
"JKKsfLJJJJJJJEKKJJJJJJJJdIQQLdJJJJJJJJJJJJJJJJJJJJJJJJJJJJJJJJJJ"
};
